<svg width="45" height="41" viewBox="0 0 45 41" fill="none" xmlns="http://www.w3.org/2000/svg">
<path d="M20.165 38.171C20.7891 36.4009 19.7958 34.4735 17.9379 33.8727C11.832 31.8926 7.73219 26.4169 7.73219 20.2445C7.73219 14.0762 11.832 8.59651 17.9379 6.61231C19.7958 6.01141 20.7891 4.08624 20.165 2.30993C19.5304 0.533656 17.5366 -0.417665 15.6873 0.177124C6.68771 3.09231 0.653931 11.151 0.653931 20.2445C0.653931 29.3381 6.68771 37.395 15.6873 40.3039C16.0526 40.432 16.4283 40.4872 16.8126 40.4872C18.2966 40.4872 19.668 39.5909 20.165 38.171Z" fill="white"/>
<path d="M29.8656 0.18824C38.825 3.12962 44.842 11.1783 44.842 20.2453C44.842 29.3066 38.825 37.3629 29.8656 40.2883C29.5006 40.4106 29.1034 40.4776 28.7342 40.4776C27.2668 40.4776 25.8785 39.5835 25.3798 38.1656C24.749 36.3954 25.7362 34.458 27.5854 33.8594C33.6852 31.867 37.7699 26.3952 37.7699 20.2453C37.7699 14.0832 33.6852 8.6196 27.5854 6.61926C25.7362 6.02031 24.749 4.08902 25.3798 2.31885C26.008 0.542567 28.0184 -0.412916 29.8656 0.18824Z" fill="white"/>
</svg>
