<svg width="1920" height="948" viewBox="0 0 1920 948" fill="none" xmlns="http://www.w3.org/2000/svg">
<g clip-path="url(#clip0_92_32)">
<rect width="1920" height="948" fill="#1B1F24"/>
<path fill-rule="evenodd" clip-rule="evenodd" d="M737.37 1604.42C627.548 1668.46 512.821 1739.17 387.841 1715.89C255.222 1691.19 126.531 1606.93 77.0733 1481.43C31.192 1364.99 118.484 1248.34 156.628 1129.15C191.612 1019.83 196.632 895.226 287.226 824.747C387.969 746.372 528.226 701.547 647.353 747.38C761.001 791.104 782.072 933.791 843.67 1038.83C906.053 1145.21 1027.23 1235.12 1004.45 1356.32C981.12 1480.47 846.491 1540.79 737.37 1604.42Z" fill="#181C21" stroke="#5E6164"/>
<path fill-rule="evenodd" clip-rule="evenodd" d="M-504.635 1127.37C-568.676 1017.55 -639.388 902.821 -616.108 777.84C-591.405 645.222 -507.148 516.53 -381.642 467.073C-265.21 421.192 -148.556 508.484 -29.3656 546.627C79.9533 581.612 204.558 586.632 275.037 677.226C353.412 777.969 398.236 918.226 352.404 1037.35C308.68 1151 165.993 1172.07 60.953 1233.67C-45.4259 1296.05 -135.34 1417.23 -256.54 1394.45C-380.685 1371.12 -441.003 1236.49 -504.635 1127.37Z" fill="#181C21" stroke="#5E6164"/>
<path fill-rule="evenodd" clip-rule="evenodd" d="M889.965 2021.21C716.059 1891.53 669.495 1653.82 665.614 1432.91C661.557 1202.04 699.878 954.527 868.321 789.378C1035.6 625.369 1285.19 573.699 1511.51 603.555C1710.24 629.77 1827.88 804.4 1975.71 935.462C2139.67 1080.83 2424.89 1174.14 2407.2 1397.64C2389.45 1621.77 2092.66 1695.62 1905.18 1826.24C1769.86 1920.51 1642.44 2011.2 1482.38 2041.94C1278.84 2081.02 1051.76 2141.85 889.965 2021.21Z" fill="#181C21" stroke="#5E6164"/>
</g>
<defs>
<clipPath id="clip0_92_32">
<rect width="1920" height="948" fill="white"/>
</clipPath>
</defs>
</svg>
