<svg width="186" height="27" viewBox="0 0 186 27" fill="none" xmlns="http://www.w3.org/2000/svg">
<path d="M125.271 2.90715C125.271 1.83436 124.326 0.945755 123.195 0.945755H107.821C106.499 0.945755 105.483 1.90929 105.483 3.15591V23.6803C105.483 24.928 106.499 25.8891 107.821 25.8891H123.382C124.516 25.8891 125.462 25.0323 125.462 23.929C125.462 22.8614 124.516 21.9675 123.382 21.9675H110.128V15.2735H121.495C122.624 15.2735 123.569 14.414 123.569 13.3464C123.569 12.2393 122.624 11.3519 121.495 11.3519H110.128V4.86718H123.195C124.326 4.86718 125.271 4.01033 125.271 2.90715Z" fill="white"/>
<path d="M151.96 25.859H152.137C153.374 25.859 154.321 24.9101 154.321 23.7122V3.05383C154.321 1.89965 153.341 0.945755 152.109 0.945755C150.904 0.945755 149.92 1.89965 149.92 3.05383V18.1639L137.181 2.25012C136.557 1.509 135.944 0.97826 134.851 0.97826H134.378C133.103 0.97826 132.122 1.96345 132.122 3.16279V23.786C132.122 24.9452 133.103 25.8891 134.34 25.8891C135.545 25.8891 136.525 24.9452 136.525 23.786V8.18659L149.625 24.5608C150.247 25.3332 150.904 25.859 151.96 25.859Z" fill="white"/>
<path d="M166.266 5.10172C165.101 5.10172 164.187 4.18422 164.187 3.09798C164.187 2.01174 165.101 1.09785 166.266 1.09785H183.218C184.352 1.09785 185.259 2.01174 185.259 3.09798C185.259 4.18422 184.352 5.10172 183.218 5.10172H176.984V23.6948C176.984 24.8862 175.961 25.83 174.721 25.83C173.488 25.83 172.46 24.8862 172.46 23.6948V5.10172H166.266Z" fill="white"/>
<path d="M23.971 25.8291C25.2493 25.8291 26.2299 24.8852 26.2299 23.694V3.13582C26.2299 1.93838 25.2493 0.95462 23.971 0.95462H23.4995C22.5928 0.95462 21.9329 1.34455 21.4614 2.07828L13.6948 13.7662L5.96839 2.11704C5.52274 1.45078 4.87068 0.95462 3.88088 0.95462H3.41072C2.13626 0.95462 1.14911 1.93838 1.14911 3.13582V23.7277C1.14911 24.9203 2.10253 25.8291 3.34185 25.8291C4.57588 25.8291 5.56179 24.9203 5.56179 23.7277V9.02606L11.7592 17.975C12.2359 18.6776 12.814 19.0939 13.6206 19.0939C14.4638 19.0939 15.0365 18.6776 15.5133 17.975L21.7472 8.96099V23.694C21.7472 24.8516 22.7708 25.8291 23.971 25.8291Z" fill="white"/>
<path d="M93.9168 25.8291C92.7115 25.8291 91.6918 24.8516 91.6918 23.694V8.96099L88.7391 13.2224L85.4554 17.975C84.9837 18.6776 84.3979 19.0939 83.5588 19.0939C82.7573 19.0939 82.178 18.6776 81.7077 17.975L75.5063 9.02606V23.7277C75.5063 24.9203 74.5178 25.8291 73.276 25.8291C72.0432 25.8291 71.0898 24.9203 71.0898 23.7277V3.13582C71.0898 1.93838 72.077 0.95462 73.3527 0.95462H73.8242C74.8152 0.95462 75.4649 1.45078 75.9025 2.11704L83.6341 13.7662L85.1059 11.5574L91.4034 2.07828C91.8736 1.34455 92.5309 0.95462 93.4479 0.95462H93.9168C95.1924 0.95462 96.1785 1.93838 96.1785 3.13582V23.694C96.1785 24.8852 95.1924 25.8291 93.9168 25.8291Z" fill="white"/>
<path d="M47.2129 24.4678C47.5947 23.3816 46.9869 22.1989 45.8502 21.8302C42.1143 20.6152 39.6059 17.2551 39.6059 13.4674C39.6059 9.68235 42.1143 6.31982 45.8502 5.10225C46.9869 4.73352 47.5947 3.55216 47.2129 2.46215C46.8245 1.37216 45.6046 0.788398 44.4732 1.15338C38.9669 2.94224 35.2751 7.88733 35.2751 13.4674C35.2751 19.0476 38.9669 23.9916 44.4732 25.7766C44.6967 25.8552 44.9266 25.8891 45.1617 25.8891C46.0696 25.8891 46.9087 25.3391 47.2129 24.4678Z" fill="white"/>
<path d="M53.1481 1.16021C58.6298 2.96514 62.3112 7.90408 62.3112 13.468C62.3112 19.0283 58.6298 23.972 53.1481 25.7671C52.9247 25.8421 52.6817 25.8832 52.4558 25.8832C51.558 25.8832 50.7086 25.3346 50.4034 24.4645C50.0175 23.3783 50.6215 22.1894 51.7529 21.8221C55.485 20.5995 57.9842 17.2418 57.9842 13.468C57.9842 9.68664 55.485 6.334 51.7529 5.10652C50.6215 4.73898 50.0175 3.55387 50.4034 2.46763C50.7878 1.37764 52.0179 0.791317 53.1481 1.16021Z" fill="white"/>
</svg>
